<?xml version="1.0" standalone="no"?>
<!DOCTYPE svg PUBLIC "-//W3C//DTD SVG 20010904//EN"
 "http://www.w3.org/TR/2001/REC-SVG-20010904/DTD/svg10.dtd">
<svg version="1.0" xmlns="http://www.w3.org/2000/svg"
 width="2491.000000pt" height="3410.000000pt" viewBox="0 0 2491.000000 3410.000000"
 preserveAspectRatio="xMidYMid meet">

<g transform="translate(0.000000,3410.000000) scale(0.100000,-0.100000)"
fill="#000000" stroke="none">
<path d="M8410 33630 c-14 -4 -60 -16 -104 -25 -49 -11 -117 -38 -183 -71 -57
-30 -112 -54 -123 -54 -11 0 -20 -4 -20 -9 0 -4 -37 -25 -82 -46 -137 -62
-190 -101 -489 -360 -57 -50 -129 -110 -159 -135 -74 -59 -127 -108 -305 -276
-82 -78 -168 -157 -190 -176 -80 -66 -467 -460 -526 -536 -111 -139 -218 -210
-349 -231 -119 -20 -149 -15 -226 31 -38 23 -87 54 -108 70 -21 15 -47 28 -57
28 -28 0 -149 -58 -155 -75 -9 -22 -107 -19 -190 6 -79 24 -107 21 -176 -21
-27 -17 -76 -37 -109 -45 -33 -7 -93 -33 -132 -57 -71 -43 -72 -43 -154 -40
-73 3 -94 0 -176 -29 -85 -30 -205 -100 -284 -164 -18 -15 -45 -50 -61 -78
-18 -34 -34 -52 -45 -51 -9 1 -14 -3 -11 -8 7 -11 -25 -37 -47 -38 -9 0 -22
-7 -30 -16 -7 -8 -21 -13 -31 -11 -10 3 -16 2 -14 -2 3 -4 -9 -16 -26 -26 -17
-10 -28 -13 -25 -8 3 5 -4 9 -16 8 -12 -2 -21 -8 -19 -15 2 -8 -4 -11 -18 -7
-11 3 -18 1 -15 -3 6 -9 -27 -23 -60 -25 -11 -1 -31 -8 -45 -15 -14 -8 -31
-13 -37 -12 -7 2 -13 -2 -13 -9 0 -6 -6 -9 -14 -6 -8 3 -20 -1 -27 -9 -7 -8
-18 -13 -25 -10 -7 3 -16 1 -20 -5 -3 -6 -13 -8 -21 -5 -8 3 -12 2 -8 -3 3 -5
-9 -12 -27 -16 -18 -4 -49 -14 -68 -22 -19 -9 -41 -17 -50 -18 -39 -4 -96 -19
-107 -28 -7 -5 -13 -7 -13 -3 0 4 -13 0 -29 -8 -15 -8 -37 -15 -47 -15 -29 0
-126 -21 -146 -32 -12 -7 -18 -6 -18 1 0 6 -7 4 -16 -5 -10 -10 -24 -13 -36
-9 -11 3 -18 2 -15 -3 3 -5 -2 -9 -11 -10 -60 -5 -195 -34 -206 -44 -4 -4 -24
-5 -42 -2 -23 4 -34 2 -34 -6 0 -7 -3 -10 -7 -8 -5 3 -19 0 -33 -6 -34 -14
-49 -17 -97 -20 -24 -1 -43 -6 -43 -10 0 -5 -5 -5 -10 -2 -6 4 -23 0 -39 -8
-21 -11 -32 -12 -40 -4 -8 8 -11 8 -11 0 0 -7 -10 -12 -22 -12 -13 0 -34 -1
-48 -1 -20 0 -22 -2 -10 -11 12 -8 10 -9 -7 -4 -26 7 -133 -15 -133 -28 0 -4
-4 -6 -9 -3 -4 3 -35 1 -67 -5 -32 -6 -69 -12 -80 -14 -12 -2 -31 -8 -44 -15
-12 -6 -32 -9 -45 -6 -13 3 -27 1 -30 -4 -4 -6 -12 -10 -18 -8 -7 1 -34 -2
-62 -7 -27 -4 -57 -9 -65 -10 -8 -1 -55 -12 -105 -23 -49 -11 -166 -32 -260
-46 -93 -15 -193 -32 -221 -37 l-50 -10 3 -69 c1 -38 -2 -72 -7 -75 -6 -4 -10
-15 -10 -26 0 -11 4 -18 9 -15 5 3 11 -3 14 -14 6 -24 -12 -38 -24 -19 -5 8
-9 10 -10 4 -1 -5 -3 -19 -4 -30 -2 -11 -8 -33 -14 -48 -12 -32 -15 -81 -3
-74 4 3 8 -27 10 -66 2 -39 7 -74 12 -77 5 -3 13 -18 19 -32 9 -24 7 -30 -15
-47 -15 -12 -27 -34 -31 -55 -3 -20 -9 -33 -14 -31 -4 3 -11 0 -15 -6 -4 -8
-3 -9 4 -5 14 8 16 -13 3 -33 -7 -10 -12 -8 -26 10 -11 15 -15 18 -12 7 4 -10
2 -18 -3 -18 -6 0 -10 5 -10 10 0 15 -16 12 -18 -2 -9 -68 -17 -94 -30 -104
-12 -8 -12 -15 -3 -32 10 -19 9 -21 -6 -15 -15 6 -16 4 -6 -9 7 -8 9 -19 5
-23 -4 -5 -1 -5 6 -1 6 4 12 2 12 -3 0 -6 -8 -11 -17 -11 -13 0 -10 -8 14 -32
17 -18 35 -49 40 -68 8 -29 10 -32 15 -14 3 12 -5 43 -18 70 -43 91 -25 184
33 170 74 -19 73 -19 73 -1 0 9 -9 24 -20 33 -18 16 -18 21 -6 67 13 48 36 69
51 46 13 -23 35 -9 46 29 12 38 11 42 -15 69 -18 18 -24 31 -17 35 6 4 11 4
11 0 0 -3 6 -1 14 6 20 16 9 40 -18 39 -20 0 -21 -1 -1 -10 19 -9 19 -9 0 -6
-14 1 -20 10 -20 32 -1 17 2 37 6 46 5 9 1 27 -9 45 -18 29 -18 74 -2 74 5 0
7 6 5 13 -6 14 43 39 59 30 6 -3 5 0 -1 8 -16 16 -17 29 -2 29 5 0 8 -4 5 -9
-3 -5 1 -11 9 -15 8 -3 12 -11 9 -19 -3 -8 2 -14 10 -14 8 0 13 5 10 11 -3 6
1 3 10 -8 8 -10 19 -15 25 -12 5 3 18 -5 29 -19 13 -16 27 -23 41 -20 12 2 19
0 16 -6 -4 -5 -12 -6 -18 -3 -7 4 -8 3 -4 -2 9 -9 13 -10 43 -13 9 -1 12 -6 8
-13 -6 -10 -4 -10 8 0 12 9 17 10 20 1 2 -6 16 -11 31 -11 17 0 24 -5 20 -12
-4 -6 0 -6 9 2 12 10 18 9 28 -3 7 -8 17 -12 23 -8 6 3 7 1 3 -5 -4 -7 -1 -12
9 -12 10 0 13 -5 9 -12 -4 -7 -3 -8 4 -4 6 4 9 12 6 19 -2 7 4 13 16 14 11 1
18 -3 14 -8 -3 -6 12 -9 40 -8 25 2 46 6 46 11 0 4 11 3 25 -2 14 -5 25 -6 25
-2 0 4 5 0 10 -8 8 -12 10 -12 10 -1 0 10 3 11 13 2 10 -8 14 -7 14 3 0 8 -10
12 -28 11 -16 -1 -27 0 -25 4 3 4 19 8 37 9 18 1 38 7 45 13 8 7 15 6 20 -2 5
-8 3 -9 -6 -4 -9 6 -11 4 -5 -5 6 -9 4 -11 -5 -5 -9 6 -11 4 -6 -4 6 -9 13 -8
27 5 10 9 19 13 19 8 0 -5 4 -3 9 5 5 8 17 16 25 17 9 1 14 -1 11 -6 -3 -4 4
-10 16 -13 17 -5 18 -3 7 11 -7 9 -8 14 -4 10 5 -4 16 -2 24 5 13 10 15 9 9
-8 -7 -19 -7 -19 8 -1 8 10 12 23 8 29 -3 6 -1 7 5 3 5 -3 13 0 15 6 4 10 6
10 6 0 1 -8 6 -10 14 -6 7 4 9 3 4 -2 -5 -5 -14 -9 -20 -9 -5 0 -11 -6 -13
-13 -1 -7 0 -8 3 -2 2 5 8 8 13 5 4 -3 13 2 20 10 6 7 19 11 27 8 12 -5 15 -2
10 10 -4 11 -1 15 13 12 10 -2 30 5 43 15 13 10 32 17 43 16 10 -2 22 1 25 6
3 5 15 10 26 11 11 0 20 8 19 16 -1 18 50 23 72 7 9 -6 11 -4 6 8 -8 22 21 44
52 40 13 -1 27 3 31 8 3 6 1 8 -5 4 -6 -3 -13 -2 -16 3 -7 11 13 9 34 -3 8 -5
12 -6 8 -1 -9 10 31 47 43 39 5 -3 9 -7 9 -10 0 -3 -5 -2 -12 2 -7 4 -8 3 -4
-5 6 -9 11 -9 22 0 17 14 18 23 2 13 -10 -6 -9 -3 0 8 8 9 19 15 26 12 8 -3
16 4 19 15 4 16 13 21 39 21 19 0 38 3 42 8 4 4 12 8 17 8 5 1 13 2 19 3 5 0
9 6 7 12 -1 6 6 13 16 15 55 12 78 24 70 37 -3 5 -2 7 4 4 5 -3 21 0 36 8 17
9 27 10 29 3 2 -6 11 -3 21 6 9 10 17 15 17 12 0 -8 82 35 100 52 9 10 15 11
18 3 2 -7 9 -5 19 5 12 11 18 12 23 4 6 -9 9 -9 14 -1 4 6 12 9 17 6 5 -3 6 0
3 8 -3 8 2 14 11 15 8 1 22 3 30 4 8 1 12 4 10 8 -4 6 62 34 68 28 1 -2 15 5
31 15 15 10 36 20 47 22 11 2 37 14 57 27 20 12 43 24 52 25 8 1 43 16 78 33
34 16 68 30 75 30 6 0 23 9 37 20 14 11 33 20 43 20 10 0 35 9 57 20 22 11 46
20 55 20 8 0 15 8 15 17 0 9 3 14 6 10 7 -6 62 12 124 42 23 11 46 18 51 16 4
-3 9 -2 11 2 6 15 149 76 181 78 4 0 11 5 15 10 10 15 125 70 139 67 6 -1 26
6 45 17 18 11 45 22 60 25 15 2 32 7 38 11 5 3 19 8 30 11 11 2 28 6 38 8 9 2
24 6 32 8 8 1 20 9 26 17 6 7 31 17 55 21 24 5 55 11 69 15 14 4 35 8 48 9 13
1 26 6 30 12 4 5 14 9 22 9 8 -1 22 2 32 7 9 4 40 10 70 14 29 3 58 11 65 16
7 5 17 7 23 3 5 -3 10 -3 10 2 0 4 14 9 31 10 17 1 36 7 43 12 6 5 29 12 51
15 74 11 110 17 125 23 8 3 31 7 50 9 70 6 116 13 160 22 26 5 55 5 65 2 11
-4 24 -5 30 -2 5 4 40 7 77 8 37 1 71 5 77 8 5 4 12 2 16 -4 4 -6 11 -7 17 -4
16 10 98 13 98 4 0 -4 9 -6 20 -3 11 3 26 0 34 -6 19 -16 50 -23 116 -27 30
-1 65 -5 78 -8 13 -3 20 -1 17 4 -3 6 11 9 32 9 21 -1 47 1 58 4 11 3 27 7 35
9 8 1 18 8 22 13 5 6 8 5 8 -3 0 -7 5 -10 10 -7 6 4 8 11 5 16 -3 5 0 7 7 4
16 -6 31 4 46 30 7 12 12 15 12 6 0 -15 40 25 40 40 0 4 9 6 20 4 11 -2 18 0
15 6 -4 5 2 12 12 16 23 9 43 28 43 42 0 6 10 13 23 16 14 4 23 13 23 23 -1 9
1 18 4 18 17 5 80 73 80 87 0 9 7 17 16 17 8 0 12 5 9 10 -3 6 3 10 14 10 14
0 23 9 27 25 3 14 10 22 15 19 5 -3 9 0 9 5 0 6 8 11 18 11 14 0 15 2 2 10
-11 7 -12 10 -2 10 24 0 71 40 66 55 -4 9 3 16 20 21 15 3 32 14 39 24 6 9 14
17 17 16 3 0 22 16 42 37 20 20 33 37 30 37 -4 0 6 9 21 19 16 10 28 20 26 22
-5 8 26 49 37 49 7 0 15 7 18 16 3 9 11 12 18 8 7 -4 10 -3 5 1 -4 5 3 19 15
32 12 13 18 23 13 23 -4 0 3 10 16 23 14 12 38 40 54 61 17 22 45 56 62 75 18
20 33 40 33 44 0 5 9 20 20 34 11 14 17 29 14 34 -3 5 2 9 10 9 9 0 16 6 16
14 0 22 61 86 103 107 20 11 37 23 37 27 0 4 17 18 37 32 37 25 73 54 120 98
13 12 26 22 29 22 3 0 10 4 17 10 58 47 77 61 77 55 0 -4 17 6 38 22 20 16 57
42 81 58 24 16 45 35 48 42 3 7 9 11 14 8 4 -3 13 4 19 15 6 11 17 20 24 20 8
0 16 6 19 13 3 7 45 37 93 67 49 29 114 72 146 94 91 66 173 121 180 121 3 0
18 10 32 22 14 13 28 23 31 23 3 0 26 10 51 21 26 11 55 21 64 22 9 2 28 10
41 18 13 9 32 18 42 22 9 3 17 11 17 16 0 5 9 12 19 16 22 7 31 42 20 73 -7
18 -16 22 -46 21 -21 0 -49 -4 -63 -9z m-2009 -1853 c-10 -9 -11 -8 -5 6 3 10
9 15 12 12 3 -3 0 -11 -7 -18z m-5343 -1612 c-3 -3 -9 2 -12 12 -6 14 -5 15 5
6 7 -7 10 -15 7 -18z m42 -230 c0 -7 -30 -13 -34 -7 -3 4 4 9 15 9 10 1 19 0
19 -2z"/>
<path d="M780 33442 c-26 -8 -50 -35 -50 -55 0 -11 -18 -37 -40 -59 -22 -22
-40 -49 -40 -59 0 -19 50 -182 69 -224 5 -11 50 -105 99 -210 90 -188 134
-311 147 -414 4 -30 9 -63 11 -75 10 -51 18 -126 18 -181 0 -59 -2 -63 -61
-145 -34 -47 -82 -110 -107 -140 -101 -121 -165 -208 -159 -214 4 -3 2 -6 -3
-6 -5 0 -18 -15 -28 -32 l-17 -33 21 28 c12 15 29 27 37 27 10 0 13 6 9 16 -3
8 -2 13 3 10 13 -8 82 14 76 25 -4 5 0 10 7 10 27 3 34 4 53 15 11 6 35 12 53
12 17 0 42 4 55 7 17 5 19 4 7 -4 -11 -8 -12 -11 -2 -11 8 0 10 -5 6 -12 -5
-8 -2 -9 10 -5 10 4 20 7 22 7 3 0 2 5 -1 10 -3 6 -1 10 4 10 6 0 11 -4 11
-10 0 -5 6 -7 13 -5 20 7 50 -22 43 -42 -5 -16 -5 -16 9 1 13 17 15 17 21 3 3
-9 10 -15 14 -12 5 3 11 1 15 -5 3 -5 0 -10 -7 -10 -7 -1 1 -7 18 -14 35 -15
50 -58 28 -77 -10 -8 -12 -5 -9 18 2 15 2 22 -1 15 -3 -6 -11 -9 -17 -5 -7 4
-6 -1 2 -10 7 -9 10 -17 6 -17 -4 0 -2 -6 4 -13 6 -8 8 -16 5 -20 -8 -8 18 -3
36 7 8 4 0 -6 -19 -23 -22 -21 -31 -36 -27 -47 6 -15 4 -15 -11 -3 -9 8 -14 9
-10 3 4 -6 -3 -20 -16 -30 -21 -19 -21 -19 -7 0 14 18 14 18 -6 6 -12 -7 -20
-21 -19 -29 2 -9 4 -16 5 -16 1 0 3 -8 5 -17 3 -19 -10 -25 -19 -9 -4 5 0 12
6 14 9 4 10 6 1 6 -16 1 -26 -16 -13 -24 5 -3 10 -15 10 -26 0 -10 5 -19 11
-19 5 0 7 6 4 13 -4 6 3 1 14 -13 27 -32 23 -56 -9 -52 -14 1 -20 -1 -15 -5 6
-5 11 -16 13 -25 3 -17 -4 -21 -40 -21 -10 0 -14 -5 -11 -14 5 -12 7 -12 14
-1 7 10 9 10 10 -2 0 -8 2 -23 4 -33 2 -9 -1 -15 -6 -11 -5 3 -9 0 -9 -6 0 -6
-4 -9 -9 -5 -5 3 -13 0 -17 -6 -4 -8 -3 -9 4 -5 7 4 12 1 12 -6 0 -9 3 -9 10
2 9 13 10 13 10 0 0 -10 3 -11 8 -4 5 9 11 8 20 -2 11 -12 10 -14 -11 -10 -13
2 -30 0 -38 -5 -10 -6 -6 -9 16 -10 25 0 27 -2 10 -8 -11 -5 -27 -7 -36 -6 -9
2 -16 -3 -16 -10 0 -8 4 -12 9 -9 7 5 13 -18 9 -39 -1 -5 3 -6 9 -2 5 3 10 1
10 -4 0 -6 -6 -11 -12 -11 -9 0 -9 -3 1 -9 8 -5 21 -7 29 -3 11 4 13 1 7 -8
-5 -8 -4 -11 3 -6 6 3 18 -1 26 -10 15 -14 16 -14 16 2 0 10 3 15 6 11 4 -3 3
-14 -1 -24 -5 -10 -9 -25 -9 -33 -1 -8 -5 -20 -9 -26 -4 -7 -1 -17 7 -23 10
-9 17 -7 27 6 13 16 12 17 -3 4 -12 -9 -18 -10 -18 -2 0 6 5 11 11 11 8 0 8 4
0 14 -9 11 -8 15 5 20 11 4 15 2 11 -8 -3 -7 -1 -18 5 -24 7 -7 1 -25 -17 -56
-15 -26 -26 -49 -24 -51 7 -6 175 240 209 308 21 40 61 95 98 132 56 58 77 95
53 95 -5 0 -28 -26 -51 -57 -51 -70 -91 -113 -102 -113 -14 0 42 80 93 133 27
28 49 53 49 57 0 4 -13 24 -30 45 -16 21 -30 43 -30 50 0 7 -9 32 -20 56 -38
85 -23 235 31 302 33 41 34 44 38 155 2 74 -2 141 -12 195 -9 45 -19 112 -22
149 l-6 67 41 12 c50 15 71 48 49 77 -42 58 -131 162 -139 162 -20 0 -70 53
-95 102 -30 56 -29 69 5 163 27 75 41 173 28 199 -13 25 -60 65 -76 66 -23 0
-23 25 2 96 l24 71 -21 36 c-11 20 -30 40 -41 43 -12 3 -36 12 -54 21 -33 14
-298 27 -332 15z m390 -1936 c0 -3 -4 -8 -10 -11 -5 -3 -10 -1 -10 4 0 6 5 11
10 11 6 0 10 -2 10 -4z m-17 -42 c-7 -19 -10 -18 -16 5 -3 13 -1 18 9 14 7 -2
10 -11 7 -19z m-96 -390 c10 4 14 4 10 0 -4 -4 -2 -13 3 -19 7 -9 3 -12 -18
-10 -15 0 -27 5 -27 11 0 5 -4 16 -10 24 -8 13 -7 13 8 1 9 -7 25 -10 34 -7z
m203 -4 c0 -6 -9 -21 -20 -33 l-20 -21 11 32 c10 30 29 44 29 22z m-190 -44
c0 -2 -9 -6 -20 -9 -11 -3 -18 -1 -14 4 5 9 34 13 34 5z m140 -30 c0 -3 -4 -8
-10 -11 -5 -3 -10 -1 -10 4 0 6 5 11 10 11 6 0 10 -2 10 -4z m-45 -66 c-3 -5
-10 -10 -16 -10 -5 0 -9 5 -9 10 0 6 7 10 16 10 8 0 12 -4 9 -10z"/>
<path d="M17828 32793 c-33 -5 -34 -10 -11 -43 18 -27 43 -47 83 -68 23 -13
221 -83 228 -81 4 1 111 -29 152 -42 19 -7 46 -13 60 -15 74 -11 170 -29 280
-54 25 -6 65 -13 90 -16 25 -2 52 -7 60 -10 8 -3 26 -8 40 -10 14 -3 58 -11
98 -20 40 -8 77 -12 83 -9 5 4 9 2 9 -3 0 -5 19 -12 43 -15 23 -3 56 -9 72
-13 17 -3 37 -7 45 -8 9 -1 21 -5 28 -9 6 -5 26 -10 44 -12 95 -10 181 -26
215 -40 21 -8 55 -13 75 -12 20 2 35 0 32 -4 -2 -4 3 -10 12 -13 10 -4 13 -2
8 7 -5 9 -4 9 7 0 7 -7 25 -13 39 -13 15 0 30 -3 34 -7 4 -4 19 -9 34 -11 15
-1 52 -9 82 -17 30 -7 72 -16 93 -19 21 -4 48 -11 60 -18 12 -6 38 -13 57 -15
37 -4 60 -8 100 -18 14 -4 31 -7 38 -7 6 -1 12 -4 12 -7 0 -6 16 -9 75 -15 11
-1 26 -6 34 -10 8 -5 24 -10 35 -12 12 -2 32 -6 46 -9 14 -4 31 -7 38 -7 6 -1
12 -5 12 -9 0 -4 8 -6 18 -4 9 1 26 -3 38 -10 19 -12 61 -23 109 -28 11 -2 26
-7 34 -11 10 -7 12 -5 6 3 -5 8 3 7 23 -3 27 -14 56 -23 85 -25 5 -1 5 -6 1
-12 -5 -8 -1 -8 13 0 15 8 26 6 44 -7 13 -9 25 -16 27 -14 8 8 62 0 57 -8 -3
-5 3 -11 14 -11 24 -2 30 -3 52 -13 10 -4 25 -6 35 -4 11 2 18 -2 16 -10 -1
-6 1 -11 5 -10 15 4 97 -13 109 -23 13 -10 47 -20 77 -22 9 -1 17 -4 17 -8 0
-7 34 -20 60 -23 30 -4 60 -18 55 -26 -3 -4 4 -6 15 -3 11 3 26 0 33 -6 8 -6
17 -8 20 -4 4 3 7 2 7 -4 0 -5 10 -9 23 -9 12 1 21 -3 20 -9 -1 -5 10 -11 23
-11 14 -1 47 -11 74 -23 27 -11 57 -22 67 -24 10 -2 27 -8 38 -14 11 -6 25
-11 30 -12 6 0 17 -6 25 -13 8 -7 30 -13 48 -12 19 0 38 -6 45 -15 7 -9 19
-17 27 -19 8 -2 18 -8 21 -14 4 -6 9 -5 12 3 4 11 6 11 6 1 1 -7 6 -10 12 -6
14 8 89 -16 89 -28 0 -5 -6 -6 -12 -2 -8 4 -10 3 -5 -2 5 -5 12 -9 15 -9 18
-2 52 -17 52 -24 0 -5 10 -8 23 -8 39 -1 48 -3 44 -10 -3 -5 10 -15 29 -24 18
-9 31 -13 29 -9 -3 5 4 6 15 3 11 -3 20 -13 20 -22 0 -13 2 -13 9 -2 7 11 11
10 20 -7 7 -13 17 -18 30 -15 10 3 22 -1 26 -8 6 -8 4 -10 -5 -4 -9 5 -11 4
-6 -4 4 -6 11 -9 16 -6 5 3 11 1 15 -4 3 -5 15 -8 26 -6 16 3 19 0 15 -12 -6
-14 -4 -14 10 -2 16 13 16 12 4 -11 -12 -22 -12 -24 2 -12 19 16 39 12 55 -10
8 -10 25 -15 43 -14 23 2 29 -1 25 -12 -4 -12 -3 -12 9 -3 11 9 15 8 19 -3 3
-8 1 -17 -6 -19 -7 -3 -2 -4 10 -4 12 1 19 5 17 9 -3 5 11 -1 31 -12 21 -12
40 -19 43 -16 10 11 31 -16 25 -32 -3 -10 -1 -13 4 -7 11 14 33 17 33 5 0 -6
9 -10 20 -10 11 0 20 -5 20 -11 0 -5 5 -7 10 -4 6 3 10 -1 10 -9 0 -9 5 -16
11 -16 5 0 7 -6 3 -12 -6 -10 -5 -10 7 -1 12 10 18 10 29 0 10 -10 11 -9 5 3
-8 13 -6 13 8 1 9 -7 14 -18 10 -25 -4 -6 0 -5 9 2 17 13 35 1 24 -16 -3 -5 1
-9 9 -9 8 0 12 4 9 9 -10 16 19 8 33 -9 8 -10 12 -13 9 -7 -7 14 42 6 51 -9 4
-6 1 -7 -7 -2 -8 5 -11 4 -6 -3 4 -6 14 -8 23 -5 12 5 14 3 8 -7 -6 -10 -4
-11 6 -4 22 14 36 13 36 -2 0 -11 -4 -11 -16 -2 -10 8 -8 4 3 -10 20 -23 32
-30 21 -12 -3 6 -1 10 5 10 6 0 8 6 5 13 -4 6 9 -4 28 -24 30 -31 36 -34 46
-20 6 9 9 10 6 4 -4 -8 1 -13 10 -13 9 0 13 -4 10 -10 -4 -6 1 -7 11 -3 12 4
15 3 10 -5 -4 -7 -4 -12 1 -13 55 -7 65 -5 73 15 8 20 9 20 10 -4 1 -14 4 -19
7 -12 6 15 33 16 33 1 0 -5 -4 -8 -9 -5 -5 4 -6 -4 -3 -16 5 -19 7 -20 10 -5
2 9 8 15 13 12 5 -3 6 2 3 12 -5 14 -4 15 4 4 13 -18 42 -23 36 -7 -3 7 2 13
11 13 9 0 14 -6 11 -14 -3 -8 -2 -12 3 -8 5 3 11 2 14 -2 2 -5 2 -2 0 5 -1 7
1 10 6 7 5 -3 12 -1 16 5 4 6 11 8 16 4 14 -8 0 -26 -14 -18 -7 4 -8 3 -4 -2
5 -5 12 -9 15 -9 4 0 13 -4 20 -9 10 -6 12 -3 10 10 -4 24 23 25 40 1 8 -10
11 -24 8 -32 -6 -16 60 20 84 45 8 9 40 28 70 42 30 14 66 34 80 46 l25 20
-27 11 c-16 6 -28 13 -28 16 0 4 4 3 10 0 5 -3 7 0 4 8 -2 7 -11 14 -19 14 -8
0 -11 -5 -8 -11 4 -6 -2 -3 -13 6 -11 9 -31 22 -44 28 l-25 10 26 -3 c21 -3
26 0 25 17 -1 26 -13 35 -38 31 -10 -2 -16 0 -13 6 4 5 0 9 -7 9 -10 0 -10 2
1 9 7 5 21 7 30 6 9 -1 10 0 3 2 -7 3 -10 8 -7 13 3 4 -3 7 -12 5 -10 -1 -24
3 -32 9 -12 9 -13 8 -7 -2 6 -10 2 -13 -15 -10 -17 2 -23 -1 -21 -13 1 -9 -4
-16 -12 -16 -8 0 -11 7 -8 19 2 10 -1 18 -7 18 -6 0 -11 5 -11 11 0 8 4 8 14
0 9 -8 16 -8 20 -2 4 6 -2 15 -13 20 -15 8 -20 7 -25 -6 -4 -9 -9 -13 -13 -9
-3 3 -15 -2 -26 -11 -11 -10 -17 -13 -13 -6 8 14 -29 37 -44 28 -6 -3 -10 2
-10 11 0 16 -1 16 -12 2 -17 -20 -46 -30 -54 -17 -3 6 -15 9 -25 6 -16 -4 -17
-2 -8 16 9 20 8 20 -10 -2 -12 -13 -21 -19 -21 -13 0 5 -18 12 -39 16 -22 3
-43 11 -46 16 -4 6 4 6 21 0 19 -8 30 -8 38 0 8 8 6 9 -8 4 -12 -5 -17 -4 -13
3 4 6 -8 9 -28 8 -18 0 -31 3 -29 7 3 4 -3 8 -13 9 -10 0 -13 3 -5 6 6 2 12 9
12 14 0 6 -8 6 -19 -1 -12 -6 -22 -6 -26 -1 -9 15 -67 42 -58 28 3 -7 -3 -4
-14 6 -11 9 -25 17 -32 17 -6 0 -37 13 -69 28 -31 16 -80 37 -109 47 -29 10
-50 22 -47 27 3 4 -3 5 -12 1 -10 -3 -15 -2 -12 3 3 5 -8 10 -25 10 -17 1 -33
6 -35 13 -2 6 -7 9 -11 7 -7 -5 -45 7 -116 34 -16 6 -32 11 -35 12 -3 0 -9 3
-15 8 -5 4 -27 11 -47 15 -23 4 -35 11 -31 18 3 6 1 7 -5 3 -13 -8 -92 11 -92
22 0 4 -13 9 -30 10 -16 1 -42 7 -57 14 -15 6 -30 12 -33 12 -36 8 -107 31
-116 37 -6 5 -19 10 -30 12 -16 3 -115 31 -152 42 -7 3 -14 5 -17 5 -3 0 -21
6 -40 14 -19 8 -35 13 -35 10 0 -2 -17 3 -37 12 -21 9 -47 17 -58 19 -33 5
-286 75 -298 82 -7 4 -18 8 -27 8 -25 3 -84 17 -95 23 -5 4 -19 8 -30 9 -11 2
-42 10 -70 19 -27 9 -63 18 -80 20 -16 2 -60 13 -98 24 -37 11 -89 25 -115 30
-84 18 -96 21 -172 41 -41 11 -86 22 -100 24 -14 2 -61 14 -105 25 -44 12 -86
21 -92 22 -7 1 -13 5 -13 10 0 5 -4 7 -10 3 -5 -3 -137 24 -293 60 -157 36
-292 65 -301 65 -10 0 -14 4 -11 10 3 5 0 7 -8 4 -7 -2 -128 18 -268 47 -258
52 -354 71 -466 89 -34 6 -73 14 -87 20 -13 5 -26 7 -29 4 -2 -3 -26 0 -53 7
-27 6 -65 13 -84 16 -19 2 -82 13 -140 24 -58 10 -115 19 -127 19 -13 0 -23 4
-23 10 0 5 -7 7 -15 4 -8 -3 -45 3 -82 15 -84 25 -153 41 -153 34 0 -3 -6 -1
-12 4 -14 11 -77 26 -117 28 -14 0 -26 6 -29 13 -2 7 -14 12 -26 12 -12 0 -26
4 -31 9 -12 12 -100 21 -137 14z m5642 -1468 c-7 -8 -17 -15 -23 -15 -6 0 -2
7 9 15 25 19 30 19 14 0z m-353 -247 c-3 -8 -6 -5 -6 6 -1 11 2 17 5 13 3 -3
4 -12 1 -19z"/>
<path d="M21831 31624 c6 -7 16 -11 21 -8 11 7 3 17 -18 20 -12 2 -13 -1 -3
-12z"/>
<path d="M23220 31379 c0 -5 5 -7 10 -4 6 3 10 8 10 11 0 2 -4 4 -10 4 -5 0
-10 -5 -10 -11z"/>
<path d="M3720 31155 c-11 -13 -10 -14 4 -9 9 3 16 10 16 15 0 13 -6 11 -20
-6z"/>
<path d="M23350 31043 c11 -24 30 -31 30 -11 0 6 -3 8 -7 5 -3 -4 -12 1 -20
11 -13 15 -13 15 -3 -5z"/>
<path d="M2231 30357 c-8 -10 -7 -14 2 -14 8 0 14 6 14 14 0 7 -1 13 -2 13 -2
0 -8 -6 -14 -13z"/>
<path d="M2144 30322 c4 -3 14 -7 22 -8 9 -1 13 0 10 4 -4 3 -14 7 -22 8 -9 1
-13 0 -10 -4z"/>
<path d="M2036 30272 c-3 -5 1 -9 9 -9 8 0 12 4 9 9 -3 4 -7 8 -9 8 -2 0 -6
-4 -9 -8z"/>
<path d="M1211 30253 c7 -12 15 -20 18 -17 3 2 -3 12 -13 22 -17 16 -18 16 -5
-5z"/>
<path d="M1043 29981 c0 -11 5 -18 9 -15 4 3 5 11 1 19 -7 21 -12 19 -10 -4z"/>
<path d="M975 29931 c-3 -5 -1 -12 5 -16 5 -3 10 1 10 9 0 18 -6 21 -15 7z"/>
<path d="M970 29885 c0 -9 6 -12 15 -9 8 4 15 10 15 15 0 5 -7 9 -15 9 -8 0
-15 -7 -15 -15z"/>
<path d="M802 29623 c-1 -21 2 -45 8 -53 8 -12 10 -9 10 11 0 16 9 33 23 42
l22 16 -22 -6 c-17 -4 -23 -1 -23 11 0 33 -16 14 -18 -21z"/>
<path d="M843 29407 c-17 -20 -33 -34 -35 -32 -1 2 -4 -18 -5 -43 -1 -34 1
-41 7 -27 5 11 9 30 9 43 1 16 7 22 25 22 53 0 68 19 43 54 -12 17 -15 16 -44
-17z"/>
<path d="M789 29038 c-1 -13 -3 -33 -4 -45 -1 -12 2 -20 6 -17 5 3 9 16 9 29
0 13 5 27 10 30 12 7 4 25 -11 25 -5 0 -10 -10 -10 -22z"/>
<path d="M790 28821 c0 -6 4 -12 9 -16 6 -3 13 -26 17 -50 7 -48 36 -95 60
-95 20 0 18 8 -16 47 -36 40 -37 50 -9 79 l20 22 -32 11 c-39 13 -49 14 -49 2z"/>
<path d="M932 28786 c7 -8 15 -12 17 -11 5 6 -10 25 -20 25 -5 0 -4 -6 3 -14z"/>
<path d="M24190 5567 c-14 -17 -26 -38 -26 -47 -1 -8 -2 -21 -3 -28 -1 -7 -5
-11 -9 -8 -5 3 -19 -9 -32 -27 -20 -26 -20 -29 -4 -17 10 8 6 0 -10 -18 -17
-18 -26 -32 -22 -32 4 0 0 -7 -8 -16 -19 -19 -22 -49 -3 -38 6 4 3 -2 -7 -14
-21 -24 -36 -31 -17 -8 8 10 9 16 1 21 -5 3 -10 1 -10 -5 0 -20 -42 -104 -63
-127 -17 -19 -18 -25 -6 -40 7 -10 9 -15 5 -11 -10 9 -36 -9 -36 -24 0 -5 6
-6 13 -2 8 5 8 3 -2 -9 -7 -9 -17 -14 -22 -12 -14 9 -32 -35 -20 -49 6 -7 9
-16 6 -20 -3 -3 0 -2 6 3 9 7 16 27 18 54 1 5 5 6 10 2 9 -5 54 46 53 59 -1 3
13 20 30 38 78 83 204 308 206 368 1 33 0 34 -15 15 -15 -20 -15 -20 -8 3 8
29 5 27 -25 -11z m-200 -381 c0 -3 -4 -8 -10 -11 -5 -3 -10 -1 -10 4 0 6 5 11
10 11 6 0 10 -2 10 -4z"/>
<path d="M23864 5008 c-4 -5 -4 -12 0 -15 3 -3 -2 -12 -10 -20 -8 -9 -12 -18
-9 -21 5 -5 26 17 45 49 6 11 5 16 -6 16 -8 0 -17 -4 -20 -9z"/>
<path d="M23820 4951 c0 -6 4 -13 10 -16 6 -3 7 1 4 9 -7 18 -14 21 -14 7z"/>
<path d="M23813 4923 c4 -3 1 -13 -6 -22 -11 -14 -10 -14 5 -2 16 12 16 31 1
31 -4 0 -3 -3 0 -7z"/>
<path d="M23753 4835 c0 -8 4 -12 9 -9 5 3 6 10 3 15 -9 13 -12 11 -12 -6z"/>
<path d="M23727 4825 c-4 -8 -3 -16 1 -19 4 -3 9 4 9 15 2 23 -3 25 -10 4z"/>
<path d="M23699 4783 c-13 -16 -12 -17 4 -4 16 13 21 21 13 21 -2 0 -10 -8
-17 -17z"/>
<path d="M23660 4715 c-7 -8 -17 -12 -24 -8 -6 3 -8 3 -4 -2 4 -4 2 -15 -4
-24 -7 -9 2 -3 20 13 18 17 32 31 32 33 0 7 -8 2 -20 -12z"/>
<path d="M23527 4571 c-4 -17 -3 -21 5 -13 5 5 8 16 6 23 -3 8 -7 3 -11 -10z"/>
<path d="M810 3838 c-19 -5 -48 -12 -63 -15 -16 -3 -31 -12 -34 -19 -3 -7 2
-48 11 -91 8 -43 18 -98 21 -123 8 -54 16 -111 20 -125 1 -5 5 -28 10 -50 4
-22 10 -49 12 -60 2 -11 6 -31 9 -45 3 -14 9 -38 14 -55 5 -16 11 -43 14 -58
3 -15 12 -54 22 -85 9 -31 17 -61 18 -67 4 -22 204 -337 225 -355 20 -17 95
-116 132 -175 60 -95 81 -146 93 -226 3 -20 10 -49 16 -65 6 -16 11 -30 10
-32 -1 -2 8 -57 16 -92 1 -8 7 -30 13 -48 5 -18 10 -35 10 -37 1 -3 4 -5 7 -4
8 1 24 -22 24 -34 0 -5 -4 -5 -10 -2 -5 3 -10 3 -10 -2 0 -16 47 -180 68 -235
11 -30 18 -59 15 -62 -4 -3 -1 -6 6 -6 7 0 10 -4 7 -9 -3 -5 1 -14 9 -21 19
-16 36 3 61 70 9 25 31 83 49 130 18 47 42 117 53 155 11 39 48 160 82 270 34
110 64 223 67 252 5 49 4 52 -23 66 -47 23 -81 28 -130 17 -58 -13 -75 -8 -97
30 -19 32 -157 151 -218 188 -21 13 -47 43 -65 74 -26 48 -29 63 -32 162 -2
88 -8 130 -33 210 -17 56 -37 124 -46 151 -8 28 -29 75 -47 105 -18 30 -52 91
-76 135 -30 56 -61 96 -103 135 -65 59 -72 61 -127 48z m655 -1718 c-3 -5 -1
-11 5 -15 5 -3 10 -21 10 -38 0 -24 -3 -28 -10 -17 -6 9 -10 10 -10 3 0 -6 4
-14 9 -17 12 -8 7 -39 -6 -43 -5 -2 -16 4 -24 14 -13 16 -12 17 4 4 15 -12 17
-12 11 3 -5 12 -14 16 -28 12 -20 -5 -21 -5 -2 9 19 14 11 21 -17 16 -5 -1 -6
3 -2 9 3 5 0 10 -7 10 -8 0 -5 7 8 18 12 9 24 25 27 34 4 11 12 15 22 12 8 -3
13 -10 10 -14z m-8 -172 c2 -17 0 -19 -7 -8 -5 8 -6 18 -4 22 8 12 10 10 11
-14z"/>
<path d="M22750 3073 c-8 -3 -24 -14 -35 -24 -22 -19 -91 -38 -143 -39 -18 0
-61 -14 -95 -32 -51 -26 -79 -33 -158 -39 -150 -12 -191 -35 -420 -235 -47
-42 -76 -57 -153 -83 -52 -17 -103 -31 -113 -31 -34 -1 -127 -75 -178 -141
-48 -62 -103 -188 -91 -208 3 -4 41 -7 85 -6 44 0 78 -2 75 -6 -2 -4 12 -6 31
-6 19 1 35 5 35 9 0 4 11 7 24 6 14 -1 24 -5 24 -8 -2 -18 4 -21 18 -9 13 10
17 10 23 0 6 -10 12 -8 24 9 11 15 16 18 20 8 5 -11 7 -11 15 0 7 11 11 10 16
-4 6 -15 9 -15 32 7 14 13 27 23 30 22 12 -8 44 -2 39 7 -3 6 1 10 10 10 9 0
14 -4 11 -8 -3 -5 1 -9 9 -9 8 0 13 5 12 11 -1 6 4 10 12 8 12 -3 12 0 2 11
-10 13 -7 14 24 7 28 -6 37 -5 41 6 15 49 16 50 24 29 5 -11 9 -14 9 -7 1 8 6
10 14 6 9 -6 9 -4 -1 8 -15 19 -7 26 25 23 13 -1 21 0 19 3 -3 2 1 10 7 17 8
9 16 10 25 3 9 -8 12 -5 12 8 0 15 2 16 9 5 8 -12 12 -13 26 -1 9 7 14 19 11
26 -3 7 1 15 9 18 7 2 16 -2 19 -10 3 -8 0 -14 -6 -14 -6 0 -8 -3 -5 -6 4 -4
13 -2 20 4 8 7 17 10 20 7 4 -3 5 -2 2 1 -10 14 16 43 32 37 11 -4 14 -3 9 5
-9 16 7 15 22 0 7 -7 12 -8 12 -4 0 5 8 2 18 -5 16 -13 16 -13 2 5 -14 18 -13
19 3 13 10 -4 17 -2 17 6 0 7 5 4 11 -6 10 -17 12 -17 23 -1 10 12 15 14 20 5
6 -9 12 -7 23 6 8 10 11 11 7 3 -11 -20 -13 -80 -2 -74 4 3 6 9 3 14 -3 5 5
10 17 12 14 2 24 11 25 23 l3 20 -9 -20 c-9 -19 -10 -19 -10 -1 -1 20 -1 20
-16 0 -14 -17 -14 -17 -3 10 7 15 14 23 16 17 2 -6 8 -9 12 -6 5 3 14 -4 20
-15 6 -11 15 -18 21 -15 5 4 13 -4 18 -17 6 -14 10 -17 10 -7 1 15 31 23 31 8
0 -5 7 -6 15 -3 8 4 12 10 9 15 -3 5 -10 7 -15 4 -5 -4 -9 -1 -9 4 0 16 16 13
30 -5 8 -8 23 -20 34 -25 20 -10 21 -10 2 5 -23 18 -14 21 15 6 14 -8 19 -7
20 2 0 7 4 4 9 -7 7 -15 9 -16 9 -4 1 9 9 23 18 30 9 8 14 9 10 2 -4 -6 -4
-13 0 -16 5 -2 3 -3 -4 -1 -12 3 -12 -21 2 -33 4 -5 5 -2 0 6 -6 11 -4 13 8 8
13 -5 17 -1 17 18 0 14 4 25 9 25 5 0 7 -10 3 -22 -3 -13 -1 -19 6 -15 5 4 12
3 14 -1 1 -5 12 0 23 11 11 11 15 17 8 13 -6 -3 -14 -2 -17 2 -6 11 34 9 52
-1 6 -5 12 -5 12 0 1 4 6 -1 13 -12 7 -11 18 -21 25 -23 8 -1 11 2 8 7 -14 22
18 22 36 0 15 -20 17 -20 11 -4 -7 19 -6 19 19 3 17 -11 29 -14 33 -8 6 10 5
11 -14 14 -5 0 -13 5 -18 10 -5 6 -2 6 6 1 11 -6 13 -4 8 11 -5 14 -2 12 13
-6 11 -14 20 -32 20 -40 1 -9 5 -6 10 7 8 19 13 21 34 14 13 -6 27 -7 32 -3 4
4 4 -1 1 -11 -4 -10 -3 -16 1 -14 4 3 13 -1 19 -9 7 -7 9 -15 4 -19 -5 -3 -12
-1 -16 5 -3 5 -12 10 -18 10 -7 0 -4 -5 6 -11 9 -6 14 -16 11 -22 -4 -7 5 -1
21 13 16 14 25 19 21 13 -5 -9 1 -13 19 -13 16 0 24 -4 19 -11 -8 -14 16 -60
28 -53 5 3 1 12 -9 21 -17 13 -17 13 3 4 12 -6 24 -8 26 -5 3 3 8 -2 12 -11 3
-9 2 -13 -3 -10 -5 3 -16 -4 -24 -15 -7 -11 -17 -17 -21 -13 -4 4 -4 0 -1 -9
4 -10 16 -15 31 -13 27 3 31 -7 11 -27 -14 -13 -17 -21 -17 -39 0 -5 -5 -7
-12 -3 -6 4 -8 3 -5 -4 8 -12 -2 -44 -12 -37 -4 2 -8 -1 -8 -8 0 -7 -23 -51
-50 -99 -28 -48 -49 -89 -46 -92 12 -12 373 219 512 329 192 151 276 259 315
406 18 64 18 66 -4 111 -45 97 -117 157 -236 198 -71 25 -327 46 -597 49 -119
1 -188 6 -210 15 -48 20 -70 25 -87 19z m-226 -598 c5 0 11 -6 14 -13 5 -17
-20 -11 -35 8 -10 12 -12 13 -13 1 0 -8 -3 -12 -6 -8 -10 10 7 28 19 20 7 -4
16 -8 21 -8z m583 -51 c-3 -3 -12 -4 -19 -1 -8 3 -5 6 6 6 11 1 17 -2 13 -5z
m74 -67 c-10 -9 -11 -8 -5 6 3 10 9 15 12 12 3 -3 0 -11 -7 -18z m24 -76 c3
-5 1 -12 -5 -16 -5 -3 -10 1 -10 9 0 18 6 21 15 7z"/>
<path d="M22370 2466 c0 -8 4 -17 9 -20 5 -4 7 3 4 14 -6 23 -13 26 -13 6z"/>
<path d="M22796 2443 c-6 -14 -5 -15 5 -6 7 7 10 15 7 18 -3 3 -9 -2 -12 -12z"/>
<path d="M22240 2440 c0 -5 7 -7 15 -4 8 4 15 8 15 10 0 2 -7 4 -15 4 -8 0
-15 -4 -15 -10z"/>
<path d="M22460 2426 c0 -2 8 -10 18 -17 15 -13 16 -12 3 4 -13 16 -21 21 -21
13z"/>
<path d="M23011 2425 c0 -5 4 -17 9 -25 7 -11 10 -11 10 -2 0 7 5 10 10 7 6
-3 10 -1 10 5 0 7 -6 10 -14 7 -8 -3 -17 -1 -20 6 -2 7 -5 8 -5 2z"/>
<path d="M22846 2402 c-3 -5 1 -9 9 -9 8 0 12 4 9 9 -3 4 -7 8 -9 8 -2 0 -6
-4 -9 -8z"/>
<path d="M21794 2239 c-8 -14 14 -19 25 -6 8 10 7 14 -5 14 -8 0 -17 -4 -20
-8z"/>
<path d="M21600 2226 c0 -2 7 -9 15 -16 13 -11 14 -10 9 4 -5 14 -24 23 -24
12z"/>
<path d="M21450 1821 c0 -6 4 -13 10 -16 6 -3 7 1 4 9 -7 18 -14 21 -14 7z"/>
</g>
</svg>
